<svg width="40" height="40" viewBox="0 0 40 40" fill="none" xmlns="http://www.w3.org/2000/svg">
<path d="M31.2892 19.8926C31.2892 12.7223 27.2094 8 20.5979 8C13.9863 8 10.2861 12.1619 9.56066 17.9611H9.24448C7.78804 17.9611 6.60316 16.7755 6.60316 15.3198H3C3 18.7625 5.80176 21.5635 9.24448 21.5635H9.51918C10.1429 27.5607 14.3143 31.9997 20.5979 31.9997C27.1679 32.0435 30.1293 27.9215 30.6873 24.5288H26.6514C25.749 26.8477 23.474 28.1789 20.5548 28.1789C17.4643 28.1367 14.3722 25.8178 14.1139 21.4805H31.2023C31.2884 20.9225 31.2884 20.3645 31.2884 19.8926M14.2 17.9603C14.758 14.354 16.8194 11.8638 20.554 11.8638C24.2887 11.8638 26.264 14.268 26.6929 17.9603H14.1992H14.2Z" fill="#121212"/>
</svg>
